<svg width="21" height="20" viewBox="0 0 21 20" fill="none" xmlns="http://www.w3.org/2000/svg">
<path d="M16.3346 3.33203H4.66797C4.00493 3.33203 3.36904 3.59542 2.9002 4.06426C2.43136 4.53311 2.16797 5.16899 2.16797 5.83203V14.1654C2.16797 14.8284 2.43136 15.4643 2.9002 15.9331C3.36904 16.402 4.00493 16.6654 4.66797 16.6654H16.3346C16.9977 16.6654 17.6336 16.402 18.1024 15.9331C18.5712 15.4643 18.8346 14.8284 18.8346 14.1654V5.83203C18.8346 5.16899 18.5712 4.53311 18.1024 4.06426C17.6336 3.59542 16.9977 3.33203 16.3346 3.33203ZM15.993 4.9987L11.093 9.8987C11.0155 9.9768 10.9233 10.0388 10.8218 10.0811C10.7202 10.1234 10.6113 10.1452 10.5013 10.1452C10.3913 10.1452 10.2824 10.1234 10.1808 10.0811C10.0793 10.0388 9.9871 9.9768 9.90964 9.8987L5.00964 4.9987H15.993ZM17.168 14.1654C17.168 14.3864 17.0802 14.5983 16.9239 14.7546C16.7676 14.9109 16.5556 14.9987 16.3346 14.9987H4.66797C4.44695 14.9987 4.23499 14.9109 4.07871 14.7546C3.92243 14.5983 3.83464 14.3864 3.83464 14.1654V6.1737L8.73464 11.0737C9.20339 11.5419 9.8388 11.8048 10.5013 11.8048C11.1638 11.8048 11.7992 11.5419 12.268 11.0737L17.168 6.1737V14.1654Z" fill="black"/>
</svg>
