<?xml version="1.0" encoding="UTF-8"?> <svg xmlns="http://www.w3.org/2000/svg" width="287" height="43" viewBox="0 0 287 43" fill="none"><g clip-path="url(#clip0_2326_163)"><path d="M281.576 8.28092C281.576 9.08239 281.59 9.54652 281.602 9.70681C281.609 9.82883 281.643 9.88146 281.75 9.88864C281.906 9.90778 281.973 9.92931 282.133 9.93649L282.119 10.0633C281.951 10.0633 281.607 10.0441 281.277 10.0441C281.013 10.0441 280.757 10.0633 280.509 10.0633L280.49 9.93649C280.597 9.92931 280.705 9.91735 280.846 9.89582C280.968 9.88146 281.035 9.83601 281.042 9.72117C281.057 9.49149 281.061 9.10153 281.061 8.26178V7.09187C281.061 6.63492 281.061 6.21624 281.054 6.03441C280.367 6.03441 280.315 6.08944 280.219 6.33825C280.138 6.5464 280.097 6.74258 280.037 6.93636L279.93 6.88851C279.97 6.69951 280.018 6.12054 280.03 5.83105C280.171 5.87173 280.509 5.88608 281.092 5.88608H281.53C282.284 5.88608 282.492 5.8789 282.659 5.83105C282.652 5.93154 282.607 6.55836 282.619 6.85263L282.49 6.90048C282.463 6.62535 282.415 6.38849 282.382 6.26169C282.334 6.08705 282.253 6.01288 281.573 6.03202C281.58 6.21385 281.566 6.65166 281.566 7.05359V8.27852L281.576 8.28092Z" fill="black"></path><path d="M282.911 5.86514C283.153 5.87949 283.361 5.88428 283.509 5.88428C283.684 5.88428 283.832 5.86992 283.899 5.86514C284.014 6.30295 284.639 8.04465 284.962 9.09494C285.433 7.681 285.916 6.18094 286.005 5.86514C286.098 5.87231 286.201 5.88428 286.375 5.88428C286.584 5.88428 286.799 5.86514 286.962 5.86514L286.976 5.99194C286.868 5.99911 286.72 6.01825 286.646 6.03261C286.579 6.03978 286.553 6.08763 286.545 6.16658C286.538 6.2886 286.545 6.58287 286.545 7.08768C286.538 8.35328 286.538 9.34854 286.564 9.67151C286.579 9.86052 286.624 9.87966 286.725 9.89401L287 9.93468V10.0615C286.873 10.0471 286.569 10.0423 286.306 10.0423C286.11 10.0423 285.89 10.0567 285.612 10.0615L285.619 9.93468C285.95 9.90119 285.99 9.85334 285.995 9.7385C286.014 9.43466 286.05 7.20969 286.069 6.15223H286.062C285.509 7.9346 285.052 9.4227 284.885 10.0208L284.662 10.0806C284.466 9.25284 283.808 7.31496 283.493 6.16419H283.485C283.485 7.63076 283.505 8.77435 283.526 9.48012C283.533 9.76961 283.552 9.87009 283.782 9.89641L284.038 9.9299V10.0567C283.863 10.0567 283.629 10.0376 283.399 10.0376C283.15 10.0376 282.969 10.0567 282.82 10.0567V9.9299C282.914 9.92272 283.009 9.91076 283.088 9.88923C283.203 9.86291 283.27 9.80071 283.284 9.45141C283.304 8.87962 283.332 7.681 283.332 6.1618L283.318 6.09481C283.304 6.05414 283.237 6.02065 283.136 6.01347L282.902 5.98715L282.909 5.86035L282.911 5.86514Z" fill="black"></path><path d="M3.43467 10.3798C3.43467 6.10207 3.43467 3.66417 3.38443 2.56843C3.38443 1.87223 3.08537 1.62341 2.43941 1.52293L0.250328 1.32436L0.350811 0.329102C1.19534 0.379343 3.33658 0.479826 4.82707 0.479826C6.46829 0.479826 8.20999 0.329102 10.0498 0.329102C14.2796 0.329102 16.7175 1.17603 18.409 2.51819C21.1459 4.75752 22.8374 8.88687 22.8374 14.6096C22.8374 21.275 21.1459 26.9474 16.3706 29.7849C14.5787 30.8782 11.9924 31.3782 9.55454 31.3782C7.91093 31.3782 6.31996 31.2299 4.72898 31.2299C3.2361 31.2299 0.700107 31.3782 0.00390625 31.3782V30.4332L1.79585 30.2347C2.84134 30.0863 3.1404 29.7873 3.19064 28.9403C3.24088 27.8948 3.43946 24.2631 3.43946 19.7869V10.3845L3.43467 10.3798ZM7.21473 19.9806C7.21473 26.3493 7.26497 28.091 7.36306 29.2346C7.41331 29.9811 7.61188 30.2801 9.45167 30.2801C12.8346 30.2801 15.1242 28.8375 16.318 26.6986C17.5621 24.5095 18.5573 20.9257 18.5573 14.9063C18.5573 10.1309 17.5621 6.59731 16.2701 4.70727C14.7772 2.56843 12.7365 1.42484 9.65263 1.42484C7.56164 1.42484 7.51379 1.77414 7.46355 2.31962C7.36306 3.16654 7.21473 5.15466 7.21473 10.6286V19.9806Z" fill="black"></path><path d="M33.1353 31.3756C31.9917 31.3756 30.4988 31.2273 28.5585 31.2273C26.6182 31.2273 25.3239 31.3756 24.3789 31.3756V30.4306C26.568 30.3804 26.9173 30.0335 27.0154 29.1363C27.0656 28.1913 27.1661 26.3993 27.1661 22.7676V17.1956C27.1661 14.6094 27.0656 12.8174 27.0656 12.0207C27.0154 11.2743 26.6661 11.1738 24.3789 11.2743V10.3795C26.3694 10.181 28.9078 10.0805 30.8481 9.535C30.7978 10.48 30.6495 13.0662 30.6495 17.0473V22.8178C30.6495 26.3491 30.75 28.0429 30.7978 29.1363C30.8481 30.1818 31.3457 30.3301 33.2357 30.4306L33.1353 31.3756ZM28.5585 0.62793C29.9031 0.62793 30.549 1.47246 30.549 2.9175C30.549 4.16157 29.5538 5.0061 28.3097 5.0061C27.214 5.0061 26.3694 4.16157 26.3694 2.86726C26.3694 1.57294 27.214 0.62793 28.5083 0.62793H28.5585Z" fill="black"></path><path d="M31.3438 10.0303C32.339 10.0805 33.8319 10.1308 35.1741 10.1308C36.5162 10.1308 38.4589 10.0805 39.4541 10.0303L39.6025 10.9753L38.4086 11.1236C37.5617 11.2241 37.4134 11.4227 37.6622 12.2696C38.856 17.2459 40.7485 23.4136 41.4949 26.4496C42.7892 22.0212 44.2797 17.1454 45.3252 12.2696C45.4735 11.5232 45.3252 11.2743 44.7271 11.2241L42.9854 10.9753L43.0859 10.0303C44.1816 10.0303 45.3754 10.1308 46.4688 10.1308C47.7631 10.1308 48.8564 10.0303 49.7034 10.0303L49.6531 10.9753C47.8109 11.2241 47.4138 11.4227 46.7176 13.4132C44.6768 19.234 42.6887 26.3491 41.1934 31.6245C40.5953 31.6245 40.1001 31.7226 39.4517 31.823C38.1096 26.6482 35.1238 16.6502 33.9802 13.1165C33.3821 11.2743 33.1357 11.0758 31.394 10.9777L31.3438 10.0327V10.0303Z" fill="black"></path><path d="M57.4132 9.48145C63.3824 9.48145 65.3729 15.2544 65.3729 20.379C65.3729 26.9463 62.7364 31.8723 57.0639 31.8723C50.8938 31.8723 48.8555 26.1496 48.8555 20.7283C48.8555 15.307 51.2934 9.48384 57.363 9.48384H57.4132V9.48145ZM57.0161 10.5269C55.5735 10.5269 54.6787 11.4217 53.9825 12.8141C53.2863 14.3572 52.8389 16.9435 52.8389 20.2283C52.8389 23.5131 53.2863 26.5468 54.083 28.2382C54.8294 29.9799 55.973 30.8244 57.3175 30.8244C58.6621 30.8244 59.7554 30.1282 60.4516 28.188C60.9995 26.6951 61.3967 24.1065 61.3967 20.7738C61.3967 17.4411 60.9493 14.6539 60.2531 13.1108C59.6071 11.6179 58.7099 10.5246 57.0687 10.5246H57.0185L57.0161 10.5269Z" fill="black"></path><path d="M68.8102 18.39C68.8102 14.9569 68.6116 12.9664 68.4609 12.1218C68.3604 11.6242 68.1618 11.3754 67.614 11.3754H66.1211L66.2216 10.4806C67.7145 10.3323 70.2528 10.0835 71.6452 9.63368L71.7936 9.78441C71.9419 11.1768 72.0926 13.2678 72.0926 14.1626H72.1931C73.0903 11.7749 74.4827 9.48535 76.9206 9.48535C78.2651 9.48535 79.2102 10.4304 79.2102 11.873C79.2102 13.5645 77.9661 14.1123 77.4182 14.1123C76.9206 14.1123 76.3727 14.0119 76.2746 13.5645C75.9756 12.6697 75.8272 12.2199 74.9803 12.2199C73.9851 12.2199 73.1908 13.763 72.6931 15.4545C72.3941 16.4498 72.296 17.2464 72.296 18.5886C72.296 25.4047 72.296 27.7923 72.3965 29.0866C72.4467 30.0819 72.6955 30.3307 75.5306 30.4312L75.3799 31.3762C74.1358 31.3762 72.1955 31.2279 70.4538 31.2279C68.7121 31.2279 67.3197 31.3762 66.1259 31.3762L66.2264 30.4312C68.1666 30.381 68.5135 30.0819 68.5638 29.2374C68.7121 28.0938 68.8126 25.9047 68.8126 23.1175V18.39H68.8102Z" fill="black"></path><path d="M93.338 26.2516C92.4432 29.6345 90.3522 31.8738 86.6727 31.8738C83.8855 31.8738 81.9954 30.7805 80.7011 28.79C79.6054 27.0985 78.8613 24.6606 78.8613 20.9284C78.8613 15.4067 81.7969 9.48535 87.7182 9.48535C90.9527 9.48535 93.1418 11.4256 93.1418 14.0142C93.1418 15.5071 92.2973 16.3517 91.2016 16.3517C90.8523 16.3517 90.4551 16.2512 90.2063 16.0526C89.857 15.7536 89.7087 15.3564 89.8092 14.8588C89.9096 14.4114 90.058 13.8133 90.058 13.4161C90.058 11.5763 89.3618 10.5308 87.4717 10.5308C84.486 10.5308 82.7945 14.8588 82.7945 20.5313C82.7945 23.218 83.2419 25.6559 84.0386 27.2493C84.8855 28.9909 86.1272 30.0843 87.8689 30.0843C90.2087 30.0843 91.5509 28.6417 92.4959 25.8042L93.3404 26.2516H93.338Z" fill="black"></path><path d="M101.646 31.8743C98.6607 31.8743 96.919 30.6805 95.675 28.5895C94.6797 26.9985 94.084 24.063 94.084 21.2758C94.084 15.8042 96.2228 9.4834 102.044 9.4834C107.367 9.4834 108.312 14.9071 108.264 17.5938C108.264 18.4383 108.015 19.4336 107.518 19.6321C106.673 19.9814 104.185 20.0795 101.646 20.0795C100.651 20.1298 99.4072 20.1298 97.9645 20.1298C97.8162 23.8117 98.5626 26.4482 99.3067 27.7928C100.151 29.3837 101.247 30.1302 102.79 30.1302C104.979 30.1302 106.273 28.9364 107.317 25.9027L108.161 26.4004C107.166 29.9316 105.128 31.8743 101.644 31.8743M101.697 10.5289C99.1608 10.5289 98.1153 15.5028 98.065 19.0364H100.701C101.996 19.0364 103.089 18.9359 103.836 18.8379C104.482 18.7374 104.781 18.1919 104.781 16.8473C104.781 15.0076 104.632 10.5289 101.747 10.5289H101.697Z" fill="black"></path><path d="M127.118 23.6626C126.869 25.4043 126.57 28.4403 126.321 31.4237C125.625 31.3735 123.884 31.2754 121.745 31.2251C119.556 31.2251 116.869 31.1749 114.33 31.1749C112.689 31.1749 109.156 31.3232 108.361 31.3232V30.3782L110.5 30.1294C111.297 29.9811 111.546 29.7322 111.594 28.9356C111.742 27.3446 111.842 23.7607 111.842 19.4328V9.87974C111.842 5.40108 111.842 3.51105 111.792 2.46555C111.742 1.76935 111.493 1.52054 110.598 1.4703L108.857 1.32197L108.909 0.329102C109.904 0.329102 112.192 0.477433 113.835 0.477433C115.228 0.477433 117.02 0.37695 118.91 0.329102L119.01 1.32436L116.871 1.52293C116.125 1.62341 115.876 1.92008 115.826 2.71676C115.776 4.65703 115.625 7.79114 115.625 12.3176V19.4328C115.625 23.8109 115.625 28.0408 115.773 29.3327C115.823 29.8806 116.271 30.1294 118.46 30.1294C122.69 30.1294 123.783 29.7322 124.63 28.1389C125.326 26.8446 125.774 25.2033 126.221 23.5119L127.118 23.6602V23.6626Z" fill="black"></path><path d="M137.911 14.3105C137.911 12.0233 137.016 10.5304 135.076 10.5304C132.937 10.5304 131.892 11.6238 131.892 13.5664C131.892 14.1645 132.04 14.6119 132.14 15.0593C132.241 15.4565 132.04 15.856 131.841 16.0043C131.542 16.3034 130.997 16.502 130.547 16.502C129.602 16.502 128.805 15.8536 128.805 14.4133C128.805 12.2745 131.492 9.4873 135.669 9.4873C138.605 9.4873 140.098 10.7816 140.696 11.6764C141.093 12.2745 141.342 13.3176 141.342 14.1143V27.7967C141.342 29.6867 141.839 30.0862 142.387 30.0862C143.134 30.0862 143.732 28.9403 144.079 27.3493L144.923 27.7464C144.426 30.7801 142.784 31.8758 140.945 31.8758C139.105 31.8758 138.157 30.7298 137.959 28.6412C136.416 30.6317 134.475 31.8758 132.686 31.8758C129.75 31.8758 127.908 29.4881 127.908 26.2033C127.908 24.3133 128.506 22.7702 130.047 21.9735C132.585 20.5811 136.016 19.337 137.909 17.6958V14.3129L137.911 14.3105ZM131.743 25.4042C131.743 27.5933 132.688 29.7346 134.528 29.7346C136.121 29.7346 137.016 28.89 137.712 27.1962C137.861 26.799 137.961 25.9019 137.961 25.4042L137.911 18.8872C136.717 19.782 135.275 20.4303 133.731 21.5237C132.636 22.2199 131.741 23.0166 131.741 25.354V25.4042H131.743Z" fill="black"></path><path d="M142.141 10.0303C143.187 10.0805 144.479 10.1308 146.172 10.1308C147.716 10.1308 149.307 10.0805 150.701 10.0303L150.802 10.9753L149.309 11.1739C148.464 11.2743 148.364 11.5232 148.512 12.2696C149.309 15.8008 150.95 21.325 152.194 26.2008C153.29 22.4207 155.429 14.2099 156.522 10.1308C157.168 10.181 157.417 10.181 158.113 10.0805C158.759 12.8677 161.896 22.5188 162.989 26.4999C164.731 20.3297 166.224 14.8582 166.573 12.4203C166.721 11.6236 166.523 11.2767 165.628 11.1763L163.836 10.9777L164.034 10.0327C165.13 10.0327 166.523 10.1331 167.915 10.1331C169.408 10.1331 170.403 10.0327 171.248 10.0327L171.298 10.9274C169.159 11.1763 168.81 11.4251 168.015 13.6142C166.97 16.5497 164.484 25.1577 162.692 31.6269C162.046 31.6269 161.647 31.725 161.001 31.8254C160.106 28.342 157.917 21.825 156.225 16.0544C154.285 22.971 152.843 27.6458 151.747 31.8254C151.149 31.725 150.651 31.6771 150.055 31.6269C148.862 26.8013 145.727 15.6047 144.782 12.571C144.335 11.2767 143.938 11.0782 142.096 10.9801L142.146 10.0351L142.141 10.0303Z" fill="black"></path><path d="M168.563 10.0307C169.559 10.081 170.951 10.1312 172.444 10.1312C173.937 10.1312 175.628 10.081 176.573 10.0307L176.772 10.9757L175.478 11.1743C174.781 11.2748 174.681 11.4734 174.879 12.1696C175.925 16.3492 178.014 23.0647 178.911 26.3974C180.004 22.5169 181.746 15.7008 182.193 12.8155C182.442 11.471 182.093 11.2245 180.899 11.0738L179.755 10.9733L179.904 10.0283C180.7 10.0283 182.042 10.1767 183.188 10.1767C184.234 10.1767 185.576 10.0283 186.672 10.0283L186.571 10.9733C184.779 11.1217 184.382 11.3705 183.636 13.7103C181.995 18.7847 179.655 27.9405 177.765 34.5078C175.975 41.1253 174.731 42.6684 172.492 42.6684C170.851 42.6684 170.004 41.4746 170.004 40.331C170.004 39.1874 170.75 38.3405 171.695 38.3405C172.341 38.3405 172.741 38.6396 172.839 39.0869C173.087 39.8836 173.387 40.331 173.884 40.331C175.427 40.331 176.87 33.2159 177.217 31.8235C176.868 31.4263 176.571 30.5794 176.322 29.7827C174.93 24.6079 172.042 15.3539 171.197 12.916C170.7 11.4734 170.351 11.2245 169.358 11.1241L168.463 10.9757L168.563 10.0307Z" fill="black"></path><path d="M192.941 31.8723C189.956 31.8723 188.214 30.6785 186.97 28.5875C185.975 26.9965 185.379 24.061 185.379 21.2738C185.379 15.8023 187.518 9.48145 193.339 9.48145C198.662 9.48145 199.607 14.9051 199.559 17.5918C199.559 18.4364 199.31 19.4316 198.812 19.6302C197.968 19.9795 195.48 20.0776 192.941 20.0776C191.946 20.1278 190.702 20.1278 189.259 20.1278C189.111 23.8098 189.858 26.4463 190.602 27.7908C191.446 29.3818 192.542 30.1282 194.085 30.1282C196.274 30.1282 197.568 28.9344 198.612 25.9008L199.456 26.3984C198.461 29.9297 196.422 31.8723 192.939 31.8723M192.992 10.5269C190.456 10.5269 189.41 15.5008 189.36 19.0345H191.996C193.291 19.0345 194.384 18.934 195.131 18.8359C195.776 18.7354 196.076 18.1899 196.076 16.8454C196.076 15.0056 195.927 10.5269 193.042 10.5269H192.992Z" fill="black"></path><path d="M202.74 18.39C202.74 14.9569 202.541 12.9664 202.391 12.1218C202.29 11.6242 202.092 11.3754 201.544 11.3754H200.051L200.151 10.4806C201.644 10.3323 204.183 10.0835 205.575 9.63368L205.723 9.78441C205.872 11.1768 206.022 13.2678 206.022 14.1626H206.123C207.018 11.7749 208.412 9.48535 210.85 9.48535C212.195 9.48535 213.14 10.4304 213.14 11.873C213.14 13.5645 211.896 14.1123 211.348 14.1123C210.85 14.1123 210.302 14.0119 210.204 13.5645C209.905 12.6697 209.757 12.2199 208.91 12.2199C207.915 12.2199 207.12 13.763 206.623 15.4545C206.324 16.4498 206.226 17.2464 206.226 18.5886C206.226 25.4047 206.226 27.7923 206.326 29.0866C206.376 30.0819 206.625 30.3307 209.46 30.4312L209.31 31.3762C208.065 31.3762 206.125 31.2279 204.383 31.2279C202.642 31.2279 201.249 31.3762 200.056 31.3762L200.156 30.4312C202.096 30.381 202.443 30.0819 202.493 29.2374C202.642 28.0938 202.742 25.9047 202.742 23.1175V18.39H202.74Z" fill="black"></path><path d="M213.191 26.5498C214.634 26.5498 215.579 27.7436 215.579 29.2365C215.579 30.8275 214.435 31.9232 213.141 31.9232C211.847 31.9232 210.703 30.8777 210.703 29.2365C210.703 27.6934 211.796 26.5498 213.141 26.5498H213.191Z" fill="#E68C65"></path><path d="M231.549 26.2516C230.654 29.6345 228.563 31.8738 224.884 31.8738C222.096 31.8738 220.206 30.7805 218.912 28.79C217.816 27.0985 217.072 24.6606 217.072 20.9284C217.072 15.4067 220.008 9.48535 225.929 9.48535C229.164 9.48535 231.353 11.4256 231.353 14.0142C231.353 15.5071 230.508 16.3517 229.412 16.3517C229.063 16.3517 228.666 16.2512 228.417 16.0526C228.068 15.7536 227.92 15.3564 228.02 14.8588C228.121 14.4114 228.269 13.8133 228.269 13.4161C228.269 11.5763 227.573 10.5308 225.683 10.5308C222.697 10.5308 221.005 14.8588 221.005 20.5313C221.005 23.218 221.453 25.6559 222.25 27.2493C223.096 28.9909 224.338 30.0843 226.08 30.0843C228.42 30.0843 229.762 28.6417 230.707 25.8042L231.551 26.2516H231.549Z" fill="black"></path><path d="M241.052 9.4834C247.023 9.4834 249.012 15.2564 249.012 20.381C249.012 26.9482 246.375 31.8743 240.703 31.8743C234.533 31.8743 232.494 26.1516 232.494 20.7303C232.494 15.309 234.932 9.48579 241.002 9.48579H241.052V9.4834ZM240.655 10.5289C239.212 10.5289 238.317 11.4237 237.621 12.8161C236.925 14.3592 236.478 16.9454 236.478 20.2303C236.478 23.5151 236.925 26.5487 237.722 28.2402C238.468 29.9819 239.612 30.8264 240.956 30.8264C242.301 30.8264 243.394 30.1302 244.09 28.1899C244.638 26.697 245.035 24.1084 245.035 20.7757C245.035 17.4431 244.588 14.6559 243.892 13.1127C243.246 11.6199 242.349 10.5265 240.707 10.5265H240.657L240.655 10.5289Z" fill="black"></path><path d="M252.446 18.39C252.446 15.555 252.395 13.6123 252.345 12.1721C252.295 11.4256 251.948 11.2749 249.807 11.3754L249.907 10.4304C251.699 10.4304 253.989 10.1816 255.728 9.73417C255.828 10.5308 255.926 12.5214 255.977 13.0692C257.419 11.4759 259.558 9.48535 262.147 9.48535C264.087 9.48535 265.032 10.3323 265.63 11.1266C266.027 11.6744 266.228 12.4209 266.427 12.9688C267.721 11.6744 269.762 9.48535 272.647 9.48535C274.836 9.48535 276.08 10.7294 276.626 11.8252C277.073 12.7199 277.224 13.7152 277.224 14.6602V29.1393C277.224 30.1345 277.573 30.2326 279.861 30.4336L279.76 31.3786C278.566 31.3786 276.975 31.2303 275.234 31.2303C273.59 31.2303 272.099 31.3786 271.253 31.3786L271.303 30.4336C273.044 30.3834 273.492 30.0843 273.542 29.2398C273.592 28.0962 273.741 25.8568 273.741 22.0242C273.741 14.7104 273.741 14.2631 273.542 13.6147C273.193 12.4209 272.348 11.574 270.855 11.574C269.114 11.574 267.621 12.9161 266.975 14.2104C266.676 14.8085 266.575 15.4043 266.575 16.2009V24.5099C266.575 26.3497 266.626 27.9933 266.676 29.1369C266.776 30.1321 267.123 30.2805 269.114 30.4312L268.915 31.3762C268.071 31.3762 266.178 31.2279 264.637 31.2279C263.097 31.2279 261.652 31.3762 260.707 31.3762V30.4312C262.499 30.2829 262.896 30.1321 262.946 28.9886C263.094 27.4454 263.094 25.9047 263.094 22.8184V18.091C263.094 14.6076 263.044 14.2104 262.845 13.4137C262.546 12.2702 261.8 11.574 260.209 11.574C258.618 11.574 257.175 12.818 256.376 14.4592C256.027 15.1554 255.929 15.8038 255.929 16.5981V24.608C255.929 26.498 255.979 27.8928 256.077 29.0364C256.178 30.1298 256.525 30.2805 258.465 30.4288L258.317 31.3738C257.321 31.3738 255.283 31.2255 253.989 31.2255C252.795 31.2255 251.003 31.3738 249.907 31.3738V30.4288C251.847 30.3283 252.197 30.18 252.295 28.8857C252.395 27.6416 252.443 25.8018 252.443 22.9644V18.3876L252.446 18.39Z" fill="black"></path></g><defs><clipPath id="clip0_2326_163"><rect width="287" height="42.3415" fill="white" transform="translate(0 0.329102)"></rect></clipPath></defs></svg> 