<svg width="32" height="32" viewBox="0 0 32 32" fill="none" xmlns="http://www.w3.org/2000/svg">
<path d="M8.17479 12.5303L8.1748 12.5303L8.52835 12.1767C8.52835 12.1767 8.52836 12.1767 8.52836 12.1767C8.62599 12.0791 8.78426 12.0791 8.8819 12.1767C8.8819 12.1767 8.8819 12.1767 8.8819 12.1767L15.6445 18.9393L15.998 19.2929L16.3516 18.9393L23.1142 12.1767C23.2118 12.0791 23.37 12.0791 23.4677 12.1767L23.8213 12.5303C23.9189 12.628 23.9189 12.7862 23.8213 12.8838L16.1748 20.5303C16.0771 20.628 15.9189 20.628 15.8213 20.5303L8.17479 12.8838C8.17479 12.8838 8.17479 12.8838 8.17478 12.8838C8.07715 12.7862 8.07716 12.628 8.17479 12.5303Z" fill="#6191A3" stroke="#6191A3"/>
</svg>
