<svg width="32" height="32" viewBox="0 0 32 32" fill="none" xmlns="http://www.w3.org/2000/svg">
<path d="M23.8252 19.4697L23.8252 19.4697L23.4717 19.8233C23.4716 19.8233 23.4716 19.8233 23.4716 19.8233C23.374 19.9209 23.2157 19.9209 23.1181 19.8233C23.1181 19.8233 23.1181 19.8233 23.1181 19.8233L16.3555 13.0607L16.002 12.7071L15.6484 13.0607L8.88584 19.8233C8.7882 19.9209 8.62998 19.9209 8.53234 19.8233L8.17874 19.4697C8.0811 19.372 8.0811 19.2138 8.17874 19.1162L15.8252 11.4697C15.9229 11.372 16.0811 11.372 16.1787 11.4697L23.8252 19.1162C23.8252 19.1162 23.8252 19.1162 23.8252 19.1162C23.9228 19.2138 23.9228 19.372 23.8252 19.4697Z" fill="#6191A3" stroke="#6191A3"/>
</svg>
