<?xml version="1.0" encoding="UTF-8"?> <svg xmlns="http://www.w3.org/2000/svg" width="287" height="43" viewBox="0 0 287 43" fill="none"><g clip-path="url(#clip0_4111_1824)"><path d="M281.576 8.27994C281.576 9.08141 281.59 9.54554 281.602 9.70584C281.609 9.82785 281.643 9.88049 281.75 9.88766C281.906 9.9068 281.973 9.92833 282.133 9.93551L282.119 10.0623C281.951 10.0623 281.607 10.0432 281.277 10.0432C281.013 10.0432 280.757 10.0623 280.509 10.0623L280.49 9.93551C280.597 9.92833 280.705 9.91637 280.846 9.89484C280.968 9.88049 281.035 9.83503 281.042 9.72019C281.057 9.49052 281.061 9.10055 281.061 8.2608V7.0909C281.061 6.63394 281.061 6.21526 281.054 6.03344C280.367 6.03344 280.315 6.08846 280.219 6.33728C280.138 6.54542 280.097 6.7416 280.037 6.93539L279.93 6.88754C279.97 6.69854 280.018 6.11956 280.03 5.83008C280.171 5.87075 280.509 5.8851 281.092 5.8851H281.53C282.284 5.8851 282.492 5.87793 282.659 5.83008C282.652 5.93056 282.607 6.55738 282.619 6.85165L282.49 6.8995C282.463 6.62437 282.415 6.38752 282.382 6.26072C282.334 6.08607 282.253 6.0119 281.573 6.03104C281.58 6.21287 281.566 6.65069 281.566 7.05262V8.27755L281.576 8.27994Z" fill="white"></path><path d="M282.911 5.86416C283.153 5.87851 283.361 5.8833 283.509 5.8833C283.684 5.8833 283.832 5.86894 283.899 5.86416C284.014 6.30198 284.639 8.04368 284.962 9.09396C285.433 7.68002 285.916 6.17996 286.005 5.86416C286.098 5.87134 286.201 5.8833 286.375 5.8833C286.584 5.8833 286.799 5.86416 286.962 5.86416L286.976 5.99096C286.868 5.99814 286.72 6.01728 286.646 6.03163C286.579 6.03881 286.553 6.08666 286.545 6.16561C286.538 6.28762 286.545 6.58189 286.545 7.0867C286.538 8.3523 286.538 9.34756 286.564 9.67054C286.579 9.85954 286.624 9.87868 286.725 9.89304L287 9.93371V10.0605C286.873 10.0462 286.569 10.0414 286.306 10.0414C286.11 10.0414 285.89 10.0557 285.612 10.0605L285.619 9.93371C285.95 9.90021 285.99 9.85236 285.995 9.73753C286.014 9.43369 286.05 7.20871 286.069 6.15125H286.062C285.509 7.93362 285.052 9.42172 284.885 10.0198L284.662 10.0796C284.466 9.25186 283.808 7.31398 283.493 6.16322H283.485C283.485 7.62978 283.505 8.77337 283.526 9.47914C283.533 9.76863 283.552 9.86911 283.782 9.89543L284.038 9.92892V10.0557C283.863 10.0557 283.629 10.0366 283.399 10.0366C283.15 10.0366 282.969 10.0557 282.82 10.0557V9.92892C282.914 9.92175 283.009 9.90978 283.088 9.88825C283.203 9.86193 283.27 9.79973 283.284 9.45043C283.304 8.87864 283.332 7.68002 283.332 6.16082L283.318 6.09383C283.304 6.05316 283.237 6.01967 283.136 6.01249L282.902 5.98617L282.909 5.85938L282.911 5.86416Z" fill="white"></path><path d="M3.43076 10.3788C3.43076 6.10109 3.43076 3.66319 3.38052 2.56745C3.38052 1.87125 3.08147 1.62244 2.43551 1.52195L0.246422 1.32338L0.346904 0.328125C1.19144 0.378366 3.33267 0.478849 4.82317 0.478849C6.46438 0.478849 8.20608 0.328125 10.0459 0.328125C14.2757 0.328125 16.7136 1.17505 18.4051 2.51721C21.142 4.75654 22.8335 8.8859 22.8335 14.6086C22.8335 21.274 21.142 26.9465 16.3667 29.7839C14.5748 30.8772 11.9885 31.3773 9.55064 31.3773C7.90703 31.3773 6.31605 31.2289 4.72508 31.2289C3.23219 31.2289 0.696201 31.3773 0 31.3773V30.4323L1.79194 30.2337C2.83744 30.0853 3.13649 29.7863 3.18674 28.9394C3.23698 27.8939 3.43555 24.2621 3.43555 19.7859V10.3836L3.43076 10.3788ZM7.21083 19.9797C7.21083 26.3483 7.26107 28.09 7.35916 29.2336C7.4094 29.9801 7.60797 30.2791 9.44776 30.2791C12.8307 30.2791 15.1202 28.8365 16.3141 26.6976C17.5581 24.5086 18.5534 20.9247 18.5534 14.9053C18.5534 10.13 17.5581 6.59633 16.2662 4.7063C14.7733 2.56745 12.7326 1.42386 9.64873 1.42386C7.55773 1.42386 7.50988 1.77316 7.45964 2.31864C7.35916 3.16556 7.21083 5.15369 7.21083 10.6276V19.9797Z" fill="white"></path><path d="M33.1313 31.3746C31.9878 31.3746 30.4949 31.2263 28.5546 31.2263C26.6143 31.2263 25.32 31.3746 24.375 31.3746V30.4296C26.5641 30.3794 26.9134 30.0325 27.0115 29.1353C27.0617 28.1903 27.1622 26.3984 27.1622 22.7666V17.1946C27.1622 14.6084 27.0617 12.8165 27.0617 12.0198C27.0115 11.2733 26.6622 11.1728 24.375 11.2733V10.3786C26.3655 10.18 28.9039 10.0795 30.8442 9.53402C30.7939 10.479 30.6456 13.0653 30.6456 17.0463V22.8169C30.6456 26.3481 30.7461 28.042 30.7939 29.1353C30.8442 30.1808 31.3418 30.3291 33.2318 30.4296L33.1313 31.3746ZM28.5546 0.626953C29.8992 0.626953 30.5451 1.47149 30.5451 2.91652C30.5451 4.16059 29.5499 5.00513 28.3058 5.00513C27.21 5.00513 26.3655 4.16059 26.3655 2.86628C26.3655 1.57197 27.21 0.626953 28.5044 0.626953H28.5546Z" fill="white"></path><path d="M31.3438 10.0293C32.339 10.0795 33.8319 10.1298 35.1741 10.1298C36.5162 10.1298 38.4589 10.0795 39.4541 10.0293L39.6025 10.9743L38.4086 11.1226C37.5617 11.2231 37.4134 11.4217 37.6622 12.2686C38.856 17.2449 40.7485 23.4126 41.4949 26.4486C42.7892 22.0202 44.2797 17.1444 45.3252 12.2686C45.4735 11.5222 45.3252 11.2734 44.7271 11.2231L42.9854 10.9743L43.0859 10.0293C44.1816 10.0293 45.3754 10.1298 46.4688 10.1298C47.7631 10.1298 48.8564 10.0293 49.7034 10.0293L49.6531 10.9743C47.8109 11.2231 47.4138 11.4217 46.7176 13.4122C44.6768 19.233 42.6887 26.3482 41.1934 31.6235C40.5953 31.6235 40.1001 31.7216 39.4517 31.8221C38.1096 26.6472 35.1238 16.6492 33.9802 13.1156C33.3821 11.2734 33.1357 11.0748 31.394 10.9767L31.3438 10.0317V10.0293Z" fill="white"></path><path d="M57.4171 9.48047C63.3863 9.48047 65.3768 15.2534 65.3768 20.3781C65.3768 26.9453 62.7403 31.8714 57.0678 31.8714C50.8977 31.8714 48.8594 26.1486 48.8594 20.7273C48.8594 15.3061 51.2973 9.48286 57.3669 9.48286H57.4171V9.48047ZM57.02 10.526C55.5774 10.526 54.6826 11.4207 53.9864 12.8131C53.2902 14.3563 52.8428 16.9425 52.8428 20.2273C52.8428 23.5122 53.2902 26.5458 54.0869 28.2372C54.8333 29.9789 55.9769 30.8235 57.3214 30.8235C58.666 30.8235 59.7593 30.1273 60.4555 28.187C61.0034 26.6941 61.4006 24.1055 61.4006 20.7728C61.4006 17.4401 60.9532 14.6529 60.257 13.1098C59.611 11.6169 58.7138 10.5236 57.0726 10.5236H57.0224L57.02 10.526Z" fill="white"></path><path d="M68.8141 18.3891C68.8141 14.9559 68.6155 12.9654 68.4648 12.1208C68.3643 11.6232 68.1658 11.3744 67.6179 11.3744H66.125L66.2255 10.4796C67.7184 10.3313 70.2568 10.0825 71.6492 9.63271L71.7975 9.78343C71.9458 11.1758 72.0965 13.2668 72.0965 14.1616H72.197C73.0942 11.7739 74.4866 9.48438 76.9245 9.48438C78.269 9.48438 79.2141 10.4294 79.2141 11.872C79.2141 13.5635 77.97 14.1114 77.4221 14.1114C76.9245 14.1114 76.3766 14.0109 76.2785 13.5635C75.9795 12.6687 75.8311 12.2189 74.9842 12.2189C73.989 12.2189 73.1947 13.7621 72.697 15.4535C72.398 16.4488 72.2999 17.2455 72.2999 18.5876C72.2999 25.4037 72.2999 27.7914 72.4004 29.0857C72.4506 30.0809 72.6994 30.3297 75.5345 30.4302L75.3838 31.3752C74.1397 31.3752 72.1994 31.2269 70.4577 31.2269C68.716 31.2269 67.3236 31.3752 66.1298 31.3752L66.2303 30.4302C68.1705 30.38 68.5174 30.0809 68.5677 29.2364C68.716 28.0928 68.8165 25.9037 68.8165 23.1165V18.3891H68.8141Z" fill="white"></path><path d="M93.3361 26.2506C92.4413 29.6335 90.3503 31.8729 86.6707 31.8729C83.8835 31.8729 81.9935 30.7795 80.6992 28.789C79.6034 27.0975 78.8594 24.6596 78.8594 20.9274C78.8594 15.4057 81.7949 9.48438 87.7162 9.48438C90.9508 9.48438 93.1399 11.4246 93.1399 14.0133C93.1399 15.5062 92.2953 16.3507 91.1996 16.3507C90.8503 16.3507 90.4532 16.2502 90.2043 16.0516C89.8551 15.7526 89.7067 15.3554 89.8072 14.8578C89.9077 14.4104 90.056 13.8123 90.056 13.4152C90.056 11.5754 89.3598 10.5299 87.4698 10.5299C84.484 10.5299 82.7926 14.8578 82.7926 20.5303C82.7926 23.217 83.2399 25.6549 84.0366 27.2483C84.8836 28.99 86.1252 30.0833 87.8669 30.0833C90.2067 30.0833 91.5489 28.6407 92.4939 25.8032L93.3385 26.2506H93.3361Z" fill="white"></path><path d="M101.648 31.8733C98.6627 31.8733 96.921 30.6795 95.6769 28.5885C94.6817 26.9975 94.0859 24.062 94.0859 21.2748C94.0859 15.8033 96.2248 9.48242 102.046 9.48242C107.369 9.48242 108.314 14.9061 108.266 17.5928C108.266 18.4373 108.017 19.4326 107.52 19.6312C106.675 19.9805 104.187 20.0786 101.648 20.0786C100.653 20.1288 99.4091 20.1288 97.9665 20.1288C97.8182 23.8108 98.5646 26.4472 99.3086 27.7918C100.153 29.3828 101.249 30.1292 102.792 30.1292C104.981 30.1292 106.275 28.9354 107.319 25.9018L108.163 26.3994C107.168 29.9306 105.129 31.8733 101.646 31.8733M101.699 10.5279C99.1627 10.5279 98.1172 15.5018 98.067 19.0355H100.703C101.998 19.0355 103.091 18.935 103.838 18.8369C104.484 18.7364 104.783 18.1909 104.783 16.8464C104.783 15.0066 104.634 10.5279 101.749 10.5279H101.699Z" fill="white"></path><path d="M127.116 23.6616C126.867 25.4033 126.568 28.4393 126.319 31.4227C125.623 31.3725 123.882 31.2744 121.743 31.2242C119.554 31.2242 116.867 31.1739 114.329 31.1739C112.687 31.1739 109.154 31.3222 108.359 31.3222V30.3772L110.498 30.1284C111.295 29.9801 111.544 29.7313 111.592 28.9346C111.74 27.3436 111.84 23.7597 111.84 19.4318V9.87876C111.84 5.40011 111.84 3.51008 111.79 2.46458C111.74 1.76838 111.491 1.51956 110.596 1.46932L108.855 1.32099L108.907 0.328125C109.903 0.328125 112.19 0.476457 113.833 0.476457C115.226 0.476457 117.018 0.375974 118.908 0.328125L119.008 1.32338L116.869 1.52195C116.123 1.62244 115.874 1.9191 115.824 2.71578C115.774 4.65606 115.623 7.79016 115.623 12.3167V19.4318C115.623 23.81 115.623 28.0398 115.771 29.3317C115.821 29.8796 116.269 30.1284 118.458 30.1284C122.688 30.1284 123.781 29.7313 124.628 28.1379C125.324 26.8436 125.772 25.2024 126.219 23.5109L127.116 23.6592V23.6616Z" fill="white"></path><path d="M137.909 14.3095C137.909 12.0223 137.014 10.5294 135.074 10.5294C132.935 10.5294 131.89 11.6228 131.89 13.5654C131.89 14.1636 132.038 14.6109 132.138 15.0583C132.239 15.4555 132.038 15.855 131.839 16.0033C131.54 16.3024 130.995 16.501 130.545 16.501C129.6 16.501 128.803 15.8526 128.803 14.4124C128.803 12.2735 131.49 9.48633 135.667 9.48633C138.603 9.48633 140.096 10.7806 140.694 11.6754C141.091 12.2735 141.34 13.3166 141.34 14.1133V27.7957C141.34 29.6857 141.837 30.0853 142.385 30.0853C143.132 30.0853 143.73 28.9393 144.077 27.3483L144.921 27.7455C144.424 30.7791 142.782 31.8748 140.943 31.8748C139.103 31.8748 138.155 30.7288 137.957 28.6402C136.414 30.6307 134.474 31.8748 132.684 31.8748C129.748 31.8748 127.906 29.4872 127.906 26.2023C127.906 24.3123 128.504 22.7692 130.045 21.9725C132.583 20.5801 136.014 19.336 137.907 17.6948V14.3119L137.909 14.3095ZM131.741 25.4033C131.741 27.5923 132.686 29.7336 134.526 29.7336C136.12 29.7336 137.014 28.8891 137.71 27.1952C137.859 26.7981 137.959 25.9009 137.959 25.4033L137.909 18.8862C136.715 19.781 135.273 20.4294 133.729 21.5227C132.634 22.2189 131.739 23.0156 131.739 25.353V25.4033H131.741Z" fill="white"></path><path d="M142.139 10.0293C143.185 10.0795 144.477 10.1298 146.17 10.1298C147.714 10.1298 149.305 10.0795 150.699 10.0293L150.8 10.9743L149.307 11.1729C148.462 11.2734 148.362 11.5222 148.51 12.2686C149.307 15.7999 150.948 21.324 152.192 26.1998C153.288 22.4198 155.427 14.2089 156.52 10.1298C157.166 10.18 157.415 10.18 158.111 10.0795C158.757 12.8667 161.894 22.5179 162.987 26.4989C164.729 20.3288 166.222 14.8572 166.571 12.4193C166.719 11.6227 166.521 11.2758 165.626 11.1753L163.834 10.9767L164.032 10.0317C165.128 10.0317 166.521 10.1322 167.913 10.1322C169.406 10.1322 170.401 10.0317 171.246 10.0317L171.296 10.9265C169.157 11.1753 168.808 11.4241 168.013 13.6132C166.968 16.5487 164.482 25.1567 162.69 31.6259C162.044 31.6259 161.645 31.724 160.999 31.8245C160.104 28.3411 157.915 21.824 156.224 16.0535C154.283 22.97 152.841 27.6449 151.745 31.8245C151.147 31.724 150.649 31.6761 150.053 31.6259C148.86 26.8003 145.725 15.6037 144.78 12.5701C144.333 11.2758 143.936 11.0772 142.094 10.9791L142.144 10.0341L142.139 10.0293Z" fill="white"></path><path d="M168.561 10.0297C169.557 10.08 170.949 10.1302 172.442 10.1302C173.935 10.1302 175.626 10.08 176.571 10.0297L176.77 10.9748L175.476 11.1733C174.779 11.2738 174.679 11.4724 174.877 12.1686C175.923 16.3482 178.012 23.0638 178.909 26.3964C180.002 22.5159 181.744 15.6998 182.191 12.8145C182.44 11.47 182.091 11.2236 180.897 11.0728L179.753 10.9724L179.902 10.0273C180.698 10.0273 182.04 10.1757 183.186 10.1757C184.232 10.1757 185.574 10.0273 186.67 10.0273L186.569 10.9724C184.777 11.1207 184.38 11.3695 183.634 13.7093C181.993 18.7837 179.653 27.9396 177.763 34.5068C175.973 41.1243 174.729 42.6675 172.49 42.6675C170.849 42.6675 170.002 41.4736 170.002 40.33C170.002 39.1865 170.748 38.3395 171.693 38.3395C172.339 38.3395 172.739 38.6386 172.837 39.086C173.086 39.8827 173.385 40.33 173.882 40.33C175.425 40.33 176.868 33.2149 177.215 31.8225C176.866 31.4254 176.569 30.5784 176.32 29.7818C174.928 24.6069 172.04 15.3529 171.195 12.915C170.698 11.4724 170.349 11.2236 169.356 11.1231L168.461 10.9748L168.561 10.0297Z" fill="white"></path><path d="M192.938 31.8714C189.952 31.8714 188.21 30.6775 186.966 28.5865C185.971 26.9956 185.375 24.06 185.375 21.2728C185.375 15.8013 187.514 9.48047 193.335 9.48047C198.658 9.48047 199.603 14.9041 199.555 17.5909C199.555 18.4354 199.306 19.4306 198.809 19.6292C197.964 19.9785 195.476 20.0766 192.938 20.0766C191.942 20.1268 190.698 20.1268 189.256 20.1268C189.107 23.8088 189.854 26.4453 190.598 27.7898C191.442 29.3808 192.538 30.1273 194.081 30.1273C196.27 30.1273 197.565 28.9334 198.608 25.8998L199.452 26.3974C198.457 29.9287 196.419 31.8714 192.935 31.8714M192.988 10.526C190.452 10.526 189.406 15.4999 189.356 19.0335H191.993C193.287 19.0335 194.38 18.933 195.127 18.8349C195.773 18.7344 196.072 18.189 196.072 16.8444C196.072 15.0046 195.923 10.526 193.038 10.526H192.988Z" fill="white"></path><path d="M202.736 18.3891C202.736 14.9559 202.537 12.9654 202.387 12.1208C202.286 11.6232 202.088 11.3744 201.54 11.3744H200.047L200.147 10.4796C201.64 10.3313 204.179 10.0825 205.571 9.63271L205.719 9.78343C205.868 11.1758 206.018 13.2668 206.018 14.1616H206.119C207.014 11.7739 208.408 9.48438 210.846 9.48438C212.191 9.48438 213.136 10.4294 213.136 11.872C213.136 13.5635 211.892 14.1114 211.344 14.1114C210.846 14.1114 210.298 14.0109 210.2 13.5635C209.901 12.6687 209.753 12.2189 208.906 12.2189C207.911 12.2189 207.117 13.7621 206.619 15.4535C206.32 16.4488 206.222 17.2455 206.222 18.5876C206.222 25.4037 206.222 27.7914 206.322 29.0857C206.372 30.0809 206.621 30.3297 209.456 30.4302L209.306 31.3752C208.062 31.3752 206.121 31.2269 204.38 31.2269C202.638 31.2269 201.245 31.3752 200.052 31.3752L200.152 30.4302C202.092 30.38 202.439 30.0809 202.49 29.2364C202.638 28.0928 202.738 25.9037 202.738 23.1165V18.3891H202.736Z" fill="white"></path><path d="M213.191 26.5488C214.634 26.5488 215.579 27.7427 215.579 29.2355C215.579 30.8265 214.435 31.9223 213.141 31.9223C211.847 31.9223 210.703 30.8768 210.703 29.2355C210.703 27.6924 211.796 26.5488 213.141 26.5488H213.191Z" fill="#E68C65"></path><path d="M231.547 26.2506C230.652 29.6335 228.561 31.8729 224.882 31.8729C222.094 31.8729 220.204 30.7795 218.91 28.789C217.814 27.0975 217.07 24.6596 217.07 20.9274C217.07 15.4057 220.006 9.48438 225.927 9.48438C229.162 9.48438 231.351 11.4246 231.351 14.0133C231.351 15.5062 230.506 16.3507 229.411 16.3507C229.061 16.3507 228.664 16.2502 228.415 16.0516C228.066 15.7526 227.918 15.3554 228.018 14.8578C228.119 14.4104 228.267 13.8123 228.267 13.4152C228.267 11.5754 227.571 10.5299 225.681 10.5299C222.695 10.5299 221.003 14.8578 221.003 20.5303C221.003 23.217 221.451 25.6549 222.248 27.2483C223.094 28.99 224.336 30.0833 226.078 30.0833C228.418 30.0833 229.76 28.6407 230.705 25.8032L231.549 26.2506H231.547Z" fill="white"></path><path d="M241.05 9.48242C247.021 9.48242 249.01 15.2554 249.01 20.38C249.01 26.9473 246.373 31.8733 240.701 31.8733C234.531 31.8733 232.492 26.1506 232.492 20.7293C232.492 15.308 234.93 9.48481 241 9.48481H241.05V9.48242ZM240.653 10.5279C239.21 10.5279 238.315 11.4227 237.619 12.8151C236.923 14.3582 236.476 16.9445 236.476 20.2293C236.476 23.5141 236.923 26.5477 237.72 28.2392C238.466 29.9809 239.61 30.8254 240.954 30.8254C242.299 30.8254 243.392 30.1292 244.088 28.1889C244.636 26.6961 245.033 24.1074 245.033 20.7748C245.033 17.4421 244.586 14.6549 243.89 13.1118C243.244 11.6189 242.347 10.5255 240.705 10.5255H240.655L240.653 10.5279Z" fill="white"></path><path d="M252.444 18.3891C252.444 15.554 252.393 13.6113 252.343 12.1711C252.293 11.4246 251.946 11.2739 249.805 11.3744L249.905 10.4294C251.697 10.4294 253.987 10.1806 255.726 9.73319C255.826 10.5299 255.925 12.5204 255.975 13.0683C257.417 11.4749 259.556 9.48438 262.145 9.48438C264.085 9.48438 265.03 10.3313 265.628 11.1256C266.025 11.6735 266.226 12.4199 266.425 12.9678C267.719 11.6735 269.76 9.48438 272.645 9.48438C274.834 9.48438 276.079 10.7284 276.624 11.8242C277.071 12.719 277.222 13.7142 277.222 14.6592V29.1383C277.222 30.1336 277.571 30.2316 279.859 30.4326L279.758 31.3776C278.564 31.3776 276.973 31.2293 275.232 31.2293C273.588 31.2293 272.097 31.3776 271.251 31.3776L271.301 30.4326C273.042 30.3824 273.49 30.0833 273.54 29.2388C273.59 28.0952 273.739 25.8559 273.739 22.0232C273.739 14.7095 273.739 14.2621 273.54 13.6137C273.191 12.4199 272.346 11.573 270.853 11.573C269.112 11.573 267.619 12.9151 266.973 14.2095C266.674 14.8076 266.573 15.4033 266.573 16.2V24.5089C266.573 26.3487 266.624 27.9923 266.674 29.1359C266.774 30.1312 267.121 30.2795 269.112 30.4302L268.913 31.3752C268.069 31.3752 266.176 31.2269 264.635 31.2269C263.095 31.2269 261.65 31.3752 260.705 31.3752V30.4302C262.497 30.2819 262.894 30.1312 262.944 28.9876C263.092 27.4445 263.092 25.9037 263.092 22.8175V18.09C263.092 14.6066 263.042 14.2095 262.844 13.4128C262.544 12.2692 261.798 11.573 260.207 11.573C258.616 11.573 257.173 12.817 256.374 14.4583C256.025 15.1545 255.927 15.8028 255.927 16.5971V24.607C255.927 26.497 255.977 27.8918 256.075 29.0354C256.176 30.1288 256.523 30.2795 258.463 30.4278L258.315 31.3728C257.319 31.3728 255.281 31.2245 253.987 31.2245C252.793 31.2245 251.001 31.3728 249.905 31.3728V30.4278C251.845 30.3273 252.195 30.179 252.293 28.8847C252.393 27.6406 252.441 25.8008 252.441 22.9634V18.3867L252.444 18.3891Z" fill="white"></path></g><defs><clipPath id="clip0_4111_1824"><rect width="287" height="42.3415" fill="white" transform="translate(0 0.328125)"></rect></clipPath></defs></svg> 