<svg width="22" height="23" viewBox="0 0 22 23" fill="none" xmlns="http://www.w3.org/2000/svg">
<g clip-path="url(#clip0_7981_2764)">
<path d="M7.13607 10.2371L6.55273 12.1315H7.7194L7.13607 10.2371Z" fill="#F4F2EC"/>
<path d="M18.3939 1.98706H9.06055V5.04262H11.3939V6.26484H3.81055C2.81888 6.26484 2.06055 7.05928 2.06055 8.09817V14.8204C2.06055 15.8593 2.81888 16.6537 3.81055 16.6537H4.39388V19.7704L8.06888 16.6537H11.9772V12.3759H18.3939C19.3855 12.3759 20.1439 11.5815 20.1439 10.5426V3.82039C20.1439 2.7815 19.3855 1.98706 18.3939 1.98706ZM8.36055 14.1482L8.06888 13.1704H6.26055L5.91055 14.1482H4.51055L6.43555 8.70928H7.83555L9.76055 14.1482H8.36055ZM17.2272 9.32039V10.5426C16.4689 10.5426 15.6522 10.2982 14.9522 9.9315C14.2522 10.2982 13.4355 10.4815 12.6189 10.5426L12.5605 9.32039C12.9689 9.32039 13.3772 9.25928 13.7855 9.13706C13.2605 8.58706 12.9105 7.91484 12.7355 7.1815H13.9605C14.1355 7.7315 14.4855 8.15928 14.8939 8.52595C15.5355 7.97595 15.9439 7.1815 16.0022 6.26484H12.5022V5.04262H14.2522V3.82039H15.4189V5.04262H17.3439L17.4022 5.65373C17.4605 6.93706 16.9939 8.22039 16.1189 9.13706C16.5272 9.25928 16.8772 9.32039 17.2272 9.32039Z" fill="#F4F2EC"/>
</g>
<defs>
<clipPath id="clip0_7981_2764">
<rect width="21" height="22" fill="white" transform="translate(0.71875 0.153076)"/>
</clipPath>
</defs>
</svg>
