<svg width="22" height="22" viewBox="0 0 22 22" fill="none" xmlns="http://www.w3.org/2000/svg">
<path d="M2.03125 19.3562C2.03125 19.6173 2.13496 19.8677 2.31957 20.0523C2.50417 20.2369 2.75455 20.3406 3.01562 20.3406H19.4219C19.6829 20.3406 19.9333 20.2369 20.1179 20.0523C20.3025 19.8677 20.4062 19.6173 20.4062 19.3562V7.87183H2.03125V19.3562ZM15.1562 9.34839C15.1562 9.30488 15.1735 9.26315 15.2043 9.23238C15.2351 9.20161 15.2768 9.18433 15.3203 9.18433H16.9609C17.0044 9.18433 17.0462 9.20161 17.0769 9.23238C17.1077 9.26315 17.125 9.30488 17.125 9.34839V10.989C17.125 11.0325 17.1077 11.0743 17.0769 11.105C17.0462 11.1358 17.0044 11.1531 16.9609 11.1531H15.3203C15.2768 11.1531 15.2351 11.1358 15.2043 11.105C15.1735 11.0743 15.1562 11.0325 15.1562 10.989V9.34839ZM15.1562 12.6296C15.1562 12.5861 15.1735 12.5444 15.2043 12.5136C15.2351 12.4829 15.2768 12.4656 15.3203 12.4656H16.9609C17.0044 12.4656 17.0462 12.4829 17.0769 12.5136C17.1077 12.5444 17.125 12.5861 17.125 12.6296V14.2703C17.125 14.3138 17.1077 14.3555 17.0769 14.3863C17.0462 14.417 17.0044 14.4343 16.9609 14.4343H15.3203C15.2768 14.4343 15.2351 14.417 15.2043 14.3863C15.1735 14.3555 15.1562 14.3138 15.1562 14.2703V12.6296ZM11.875 9.34839C11.875 9.30488 11.8923 9.26315 11.9231 9.23238C11.9538 9.20161 11.9956 9.18433 12.0391 9.18433H13.6797C13.7232 9.18433 13.7649 9.20161 13.7957 9.23238C13.8265 9.26315 13.8438 9.30488 13.8438 9.34839V10.989C13.8438 11.0325 13.8265 11.0743 13.7957 11.105C13.7649 11.1358 13.7232 11.1531 13.6797 11.1531H12.0391C11.9956 11.1531 11.9538 11.1358 11.9231 11.105C11.8923 11.0743 11.875 11.0325 11.875 10.989V9.34839ZM11.875 12.6296C11.875 12.5861 11.8923 12.5444 11.9231 12.5136C11.9538 12.4829 11.9956 12.4656 12.0391 12.4656H13.6797C13.7232 12.4656 13.7649 12.4829 13.7957 12.5136C13.8265 12.5444 13.8438 12.5861 13.8438 12.6296V14.2703C13.8438 14.3138 13.8265 14.3555 13.7957 14.3863C13.7649 14.417 13.7232 14.4343 13.6797 14.4343H12.0391C11.9956 14.4343 11.9538 14.417 11.9231 14.3863C11.8923 14.3555 11.875 14.3138 11.875 14.2703V12.6296ZM11.875 15.9109C11.875 15.8674 11.8923 15.8256 11.9231 15.7949C11.9538 15.7641 11.9956 15.7468 12.0391 15.7468H13.6797C13.7232 15.7468 13.7649 15.7641 13.7957 15.7949C13.8265 15.8256 13.8438 15.8674 13.8438 15.9109V17.5515C13.8438 17.595 13.8265 17.6368 13.7957 17.6675C13.7649 17.6983 13.7232 17.7156 13.6797 17.7156H12.0391C11.9956 17.7156 11.9538 17.6983 11.9231 17.6675C11.8923 17.6368 11.875 17.595 11.875 17.5515V15.9109ZM8.59375 12.6296C8.59375 12.5861 8.61103 12.5444 8.6418 12.5136C8.67257 12.4829 8.7143 12.4656 8.75781 12.4656H10.3984C10.4419 12.4656 10.4837 12.4829 10.5144 12.5136C10.5452 12.5444 10.5625 12.5861 10.5625 12.6296V14.2703C10.5625 14.3138 10.5452 14.3555 10.5144 14.3863C10.4837 14.417 10.4419 14.4343 10.3984 14.4343H8.75781C8.7143 14.4343 8.67257 14.417 8.6418 14.3863C8.61103 14.3555 8.59375 14.3138 8.59375 14.2703V12.6296ZM8.59375 15.9109C8.59375 15.8674 8.61103 15.8256 8.6418 15.7949C8.67257 15.7641 8.7143 15.7468 8.75781 15.7468H10.3984C10.4419 15.7468 10.4837 15.7641 10.5144 15.7949C10.5452 15.8256 10.5625 15.8674 10.5625 15.9109V17.5515C10.5625 17.595 10.5452 17.6368 10.5144 17.6675C10.4837 17.6983 10.4419 17.7156 10.3984 17.7156H8.75781C8.7143 17.7156 8.67257 17.6983 8.6418 17.6675C8.61103 17.6368 8.59375 17.595 8.59375 17.5515V15.9109ZM5.3125 12.6296C5.3125 12.5861 5.32978 12.5444 5.36055 12.5136C5.39132 12.4829 5.43305 12.4656 5.47656 12.4656H7.11719C7.1607 12.4656 7.20243 12.4829 7.2332 12.5136C7.26397 12.5444 7.28125 12.5861 7.28125 12.6296V14.2703C7.28125 14.3138 7.26397 14.3555 7.2332 14.3863C7.20243 14.417 7.1607 14.4343 7.11719 14.4343H5.47656C5.43305 14.4343 5.39132 14.417 5.36055 14.3863C5.32978 14.3555 5.3125 14.3138 5.3125 14.2703V12.6296ZM5.3125 15.9109C5.3125 15.8674 5.32978 15.8256 5.36055 15.7949C5.39132 15.7641 5.43305 15.7468 5.47656 15.7468H7.11719C7.1607 15.7468 7.20243 15.7641 7.2332 15.7949C7.26397 15.8256 7.28125 15.8674 7.28125 15.9109V17.5515C7.28125 17.595 7.26397 17.6368 7.2332 17.6675C7.20243 17.6983 7.1607 17.7156 7.11719 17.7156H5.47656C5.43305 17.7156 5.39132 17.6983 5.36055 17.6675C5.32978 17.6368 5.3125 17.595 5.3125 17.5515V15.9109ZM19.4219 3.27808H17.1283V1.96558H15.1595V3.27808H7.27797V1.96558H5.30922V3.27808H3.01562C2.88685 3.27699 2.75913 3.3014 2.63983 3.3499C2.52052 3.39839 2.412 3.47002 2.32049 3.56064C2.22899 3.65126 2.15633 3.7591 2.10669 3.87793C2.05705 3.99676 2.03141 4.12424 2.03125 4.25302V6.55933H20.4062V4.25302C20.4061 4.12424 20.3805 3.99676 20.3308 3.87793C20.2812 3.7591 20.2085 3.65126 20.117 3.56064C20.0255 3.47002 19.917 3.39839 19.7977 3.3499C19.6784 3.3014 19.5507 3.27699 19.4219 3.27808Z" fill="#F4F2EC"/>
</svg>
