<svg width="25" height="24" viewBox="0 0 25 24" fill="none" xmlns="http://www.w3.org/2000/svg">
<path d="M3.5 4C3.5 3.46957 3.71071 2.96086 4.08579 2.58579C4.46086 2.21072 4.96957 2 5.5 2H7.5C7.864 2 8.206 2.097 8.5 2.268C8.80385 2.09201 9.14886 1.99954 9.5 2H11.5C12.227 2 12.864 2.388 13.214 2.969C13.424 2.801 13.67 2.673 13.946 2.599L15.878 2.082C16.1317 2.01394 16.3963 1.99653 16.6568 2.03077C16.9172 2.065 17.1684 2.1502 17.3959 2.28151C17.6234 2.41281 17.8228 2.58765 17.9828 2.79604C18.1427 3.00442 18.26 3.24227 18.328 3.496L22.468 18.951C22.5361 19.2047 22.5535 19.4694 22.5192 19.7298C22.485 19.9902 22.3998 20.2414 22.2685 20.4689C22.1372 20.6964 21.9624 20.8958 21.754 21.0558C21.5456 21.2157 21.3077 21.333 21.054 21.401L19.122 21.918C18.8683 21.9861 18.6037 22.0035 18.3432 21.9692C18.0828 21.935 17.8316 21.8498 17.6041 21.7185C17.3766 21.5872 17.1772 21.4124 17.0172 21.204C16.8573 20.9956 16.74 20.7577 16.672 20.504L13.5 8.663V20C13.5 20.5304 13.2893 21.0391 12.9142 21.4142C12.5391 21.7893 12.0304 22 11.5 22H9.5C9.14886 22.0005 8.80385 21.908 8.5 21.732C8.19615 21.908 7.85114 22.0005 7.5 22H5.5C4.96957 22 4.46086 21.7893 4.08579 21.4142C3.71071 21.0391 3.5 20.5304 3.5 20V4Z" fill="#18414D"/>
</svg>
