<svg width="91" height="90" viewBox="0 0 91 90" fill="none" xmlns="http://www.w3.org/2000/svg">
<ellipse opacity="0.5" cx="45.6572" cy="45.0077" rx="45.1474" ry="44.6815" fill="black"/>
<path d="M34.7695 60.767V29.1089C34.7702 28.7128 34.8795 28.3242 35.0859 27.9838C35.2923 27.6433 35.5883 27.3636 35.9428 27.1739C36.2974 26.9843 36.6974 26.8916 37.101 26.9057C37.5045 26.9198 37.8968 27.0401 38.2367 27.2539L63.3445 43.0786C63.6624 43.2784 63.924 43.5534 64.1052 43.8783C64.2864 44.2032 64.3813 44.5676 64.3813 44.9379C64.3813 45.3083 64.2864 45.6727 64.1052 45.9976C63.924 46.3225 63.6624 46.5975 63.3445 46.7973L38.2367 62.6264C37.8968 62.8402 37.5045 62.9605 37.101 62.9746C36.6974 62.9887 36.2974 62.896 35.9428 62.7064C35.5883 62.5167 35.2923 62.237 35.0859 61.8965C34.8795 61.5561 34.7702 61.1675 34.7695 60.7714V60.767Z" fill="white"/>
</svg>
