<svg width="28" height="25" viewBox="0 0 28 25" fill="none" xmlns="http://www.w3.org/2000/svg">
<path d="M14.3213 2.34766C10.5965 2.34766 7.58398 5.36019 7.58398 9.08495C7.58398 13.0985 11.8381 18.6327 13.5898 20.7405C13.9748 21.2025 14.6774 21.2025 15.0624 20.7405C16.8045 18.6327 21.0586 13.0985 21.0586 9.08495C21.0586 5.36019 18.046 2.34766 14.3213 2.34766ZM14.3213 11.4911C12.9931 11.4911 11.9151 10.4132 11.9151 9.08495C11.9151 7.75674 12.9931 6.67877 14.3213 6.67877C15.6495 6.67877 16.7275 7.75674 16.7275 9.08495C16.7275 10.4132 15.6495 11.4911 14.3213 11.4911Z" fill="#F4F2EC"/>
</svg>
